<svg id="Livello_1" data-name="Livello 1" xmlns="http://www.w3.org/2000/svg" width="8803.36" height="971.51" viewBox="0 0 8803.36 971.51">
  <defs>
    <style>
      .cls-1 {
        fill: #333;
      }
    </style>
  </defs>
  <title>welcome-tab_logo</title>
  <g>
    <path class="cls-1" d="M1659.29,54.62,1352.36,965H1250.93L984.31,188.58,716.4,965H616.26L309.32,54.62h98.85L670.88,837.55,942.69,54.62h89.74l267.91,786.83L1567,54.62Z" transform="translate(-309.32)"/>
    <path class="cls-1" d="M2359,651.57H1786.75q7.82,106.66,81.94,172.33T2056,889.57q63.7,0,117.05-22.76a255.37,255.37,0,0,0,92.34-67l52,59.82q-45.55,54.63-113.8,83.24t-150.22,28.61q-105.33,0-186.62-44.87t-126.81-124.2q-45.54-79.32-45.51-179.48T1738,443.49q43.56-79.32,119.65-123.56t171-44.22q94.9,0,170.36,44.22t118.36,122.9q42.91,78.72,42.92,180.13ZM1862.84,418.12q-67,63.11-76.09,164.52h485.11q-9.12-101.43-76.09-164.52t-167.11-63.07Q1929.81,355.05,1862.84,418.12Z" transform="translate(-309.32)"/>
    <path class="cls-1" d="M2548.85,0h92.34V965h-92.34Z" transform="translate(-309.32)"/>
    <path class="cls-1" d="M3000.79,927.29q-80-44.2-125.5-124.2T2829.77,623q0-100.14,45.52-179.47t125.5-123.56q80-44.19,181.43-44.22,88.43,0,158,34.47T3450.13,411l-68.93,46.82q-33.84-50.71-85.84-76.08t-113.14-25.36q-74.14,0-133.31,33.16t-92.33,94.29Q2923.4,545,2923.41,623q0,79.35,33.17,139.81t92.33,93.64q59.18,33.17,133.31,33.16,61.11,0,113.14-24.7t85.84-75.44l68.93,46.82Q3409.81,902.58,3339.59,937t-157.37,34.47Q3080.78,971.51,3000.79,927.29Z" transform="translate(-309.32)"/>
    <path class="cls-1" d="M3720.65,926.64q-79.35-44.86-124.85-124.2T3550.28,623q0-100.14,45.52-179.47t124.85-123.56q79.3-44.19,178.17-44.22T4077,319.93q79.31,44.24,124.2,123.56T4246.07,623q0,100.17-44.87,179.48T4077,926.64q-79.35,44.86-178.18,44.87T3720.65,926.64Zm308.88-70.23q57.85-33.17,90.38-94.29T4152.43,623q0-78-32.52-139.16t-90.38-94.29q-57.89-33.15-130.71-33.16t-130.7,33.16q-57.88,33.17-91,94.29T3643.92,623q0,78,33.16,139.16t91,94.29q57.86,33.17,130.7,33.16T4029.53,856.41Z" transform="translate(-309.32)"/>
    <path class="cls-1" d="M5490.05,349.84q73.46,74.15,73.47,218.5V965h-92.33V577.44q0-106.62-51.38-162.57T5274.8,359q-106.65,0-167.76,65.68T5045.9,606.06V965h-92.33V577.44q0-106.62-51.37-162.57T4755.89,359q-105.36,0-167.13,65.68T4527,606.06V965h-92.34V280.92h88.44V405.77q36.39-62.43,101.44-96.24t149.56-33.82q85.83,0,148.91,36.42t94.29,107.94q37.71-67.6,108.6-106t161.92-38.37Q5416.57,275.71,5490.05,349.84Z" transform="translate(-309.32)"/>
    <path class="cls-1" d="M6412.77,651.57H5840.53q7.8,106.66,81.93,172.33t187.28,65.67q63.7,0,117.05-22.76a255.45,255.45,0,0,0,92.34-67l52,59.82q-45.54,54.63-113.8,83.24t-150.21,28.61q-105.35,0-186.62-44.87t-126.81-124.2q-45.54-79.32-45.52-179.48t43.57-179.47q43.56-79.32,119.64-123.56t171-44.22q94.92,0,170.37,44.22t118.35,122.9q42.92,78.72,42.92,180.13ZM5916.61,418.12q-67,63.11-76.08,164.52h485.1q-9.12-101.43-76.08-164.52t-167.12-63.07Q5983.58,355.05,5916.61,418.12Z" transform="translate(-309.32)"/>
    <path class="cls-1" d="M7139.75,137.86H6819.82V54.62h736.11v83.24H7236V965h-96.24Z" transform="translate(-309.32)"/>
    <path class="cls-1" d="M8097,342.69q71.51,67,71.53,198.34V965H8080V858.36q-31.22,53.34-91.69,83.23t-143.71,29.92q-114.45,0-182.07-54.62t-67.63-144.37q0-87.1,63.08-140.45T7859,578.74h217.19V537.12q0-88.42-49.42-134.6t-144.36-46.17a366.74,366.74,0,0,0-124.85,21.46q-59.84,21.45-102.74,59.17l-41.63-68.93q52-44.19,124.86-68.28t153.47-24.06Q8025.39,275.71,8097,342.69Zm-104,520.22q55.89-35.76,83.23-103.39V647.67H7861.55Q7686,647.67,7686,769.92q0,59.83,45.52,94.29T7859,898.68Q7937,898.68,7992.91,862.91Z" transform="translate(-309.32)"/>
    <path class="cls-1" d="M8946.21,319.28q78,43.59,122.25,122.91T9112.68,623q0,101.44-44.22,180.78T8946.21,927.29q-78,44.24-174.27,44.22-85.85,0-154.12-36.42t-109.9-105.34V965h-88.44V0h92.35V411q42.92-66.33,109.89-100.79t150.22-34.47Q8868.17,275.71,8946.21,319.28Zm-50.72,537.13q58.52-33.17,91.69-94.29T9020.34,623q0-78-33.16-139.16t-91.69-94.29q-58.53-33.15-130.06-33.16-72.84,0-130.7,33.16t-91,94.29Q8510.53,545,8510.52,623t33.17,139.16q33.16,61.15,91,94.29t130.7,33.16Q8836.94,889.57,8895.49,856.41Z" transform="translate(-309.32)"/>
  </g>
</svg>
