<svg id="Livello_1" data-name="Livello 1" xmlns="http://www.w3.org/2000/svg" width="796" height="796" viewBox="0 0 796 796">
  <defs>
    <style>
      .cls-1 {
        fill: #fff;
        stroke: #303030;
        stroke-miterlimit: 10;
        stroke-width: 31px;
      }
    </style>
  </defs>
  <title>search_icon</title>
  <path class="cls-1" d="M782.5,451.84V350.07l-82.61-11.19a304.26,304.26,0,0,0-43.54-106l50.78-66.69-72-72L568.8,144.75a304.34,304.34,0,0,0-105.71-44.22l-11.25-83H350.07l-11.19,82.61a304.26,304.26,0,0,0-106,43.54L166.19,92.87l-72,72,50.52,66.36a304.34,304.34,0,0,0-44.22,105.71l-83,11.25V449.93l82.61,11.19a304.26,304.26,0,0,0,43.54,106L92.87,633.81l72,72,66.36-50.52a304.34,304.34,0,0,0,105.71,44.22l11.25,83H449.93l11.19-82.61a304.26,304.26,0,0,0,106-43.54l66.69,50.78,72-72L655.25,568.8a304.34,304.34,0,0,0,44.22-105.71ZM400,583.6A183.6,183.6,0,1,1,583.6,400,183.6,183.6,0,0,1,400,583.6Z" transform="translate(-2 -2)"/>
</svg>
